<svg width="19" height="18" viewBox="0 0 19 18" fill="none" xmlns="http://www.w3.org/2000/svg">
<path d="M15.9016 6.59985H8.70157C7.81791 6.59985 7.10156 7.3162 7.10156 8.19986V15.3999C7.10156 16.2836 7.81791 16.9999 8.70157 16.9999H15.9016C16.7853 16.9999 17.5016 16.2836 17.5016 15.3999V8.19986C17.5016 7.3162 16.7853 6.59985 15.9016 6.59985Z" stroke="#2E2473" stroke-width="1.5" stroke-linecap="round" stroke-linejoin="round"/>
<path d="M3.90002 11.4001H3.10001C2.67566 11.4001 2.26869 11.2315 1.96863 10.9314C1.66857 10.6314 1.5 10.2244 1.5 9.80006V2.60001C1.5 2.17566 1.66857 1.76869 1.96863 1.46863C2.26869 1.16857 2.67566 1 3.10001 1H10.3001C10.7244 1 11.1314 1.16857 11.4314 1.46863C11.7315 1.76869 11.9001 2.17566 11.9001 2.60001V3.40002" stroke="#2E2473" stroke-width="1.5" stroke-linecap="round" stroke-linejoin="round"/>
</svg>
