<svg width="16" height="17" viewBox="0 0 16 17" fill="none" xmlns="http://www.w3.org/2000/svg">
<path d="M13.4698 1.96984C13.7627 1.67695 14.2375 1.67695 14.5304 1.96984C14.8233 2.26274 14.8233 2.7375 14.5304 3.03039L9.06066 8.50012L14.5304 13.9698L14.5821 14.0265C14.8225 14.3211 14.805 14.7558 14.5304 15.0304C14.2558 15.305 13.8211 15.3225 13.5265 15.0821L13.4698 15.0304L8.00012 9.56066L2.53039 15.0304C2.2375 15.3233 1.76274 15.3233 1.46984 15.0304C1.17695 14.7375 1.17695 14.2627 1.46984 13.9698L6.93957 8.50012L1.46984 3.03039L1.41809 2.97375C1.17778 2.67917 1.19524 2.24445 1.46984 1.96984C1.74445 1.69524 2.17917 1.67778 2.47375 1.91809L2.53039 1.96984L8.00012 7.43957L13.4698 1.96984Z" fill="#1F2937"/>
</svg>
