<svg width="18" height="19" viewBox="0 0 18 19" fill="none" xmlns="http://www.w3.org/2000/svg">
<path d="M7.47273 3.85632C7.97333 3.73914 8.48586 3.68057 9 3.68178C14.0909 3.68178 17 9.49996 17 9.49996C16.5585 10.3259 16.032 11.1034 15.4291 11.82M10.5418 11.0418C10.3421 11.2561 10.1012 11.4281 9.83357 11.5473C9.56593 11.6666 9.27702 11.7307 8.98407 11.7359C8.69111 11.741 8.40012 11.6871 8.12844 11.5774C7.85677 11.4677 7.60998 11.3043 7.4028 11.0972C7.19562 10.89 7.03229 10.6432 6.92255 10.3715C6.81282 10.0998 6.75893 9.80885 6.7641 9.51589C6.76927 9.22294 6.83339 8.93403 6.95264 8.66639C7.07189 8.39876 7.24382 8.15788 7.45818 7.95814M13.32 13.82C12.0768 14.7676 10.563 15.2926 9 15.3181C3.90909 15.3181 1 9.49996 1 9.49996C1.90465 7.81406 3.15937 6.34113 4.68 5.17996L13.32 13.82Z" stroke="#4B5563" stroke-opacity="0.5" stroke-width="1.5" stroke-linecap="round" stroke-linejoin="round"/>
<path d="M1 1.5L17 17.5" stroke="#4B5563" stroke-opacity="0.5" stroke-width="1.5" stroke-linecap="round" stroke-linejoin="round"/>
</svg>
