<svg width="16" height="14" viewBox="0 0 16 14" fill="none" xmlns="http://www.w3.org/2000/svg">
<path d="M2 2L5 1.5H10.5L14 2L14.5 5L14 8L8 13L2 8L1 5L2 2Z" fill="#2E2473"/>
<path d="M14.5413 1.48311C13.6931 0.644273 12.5686 0.132293 11.3712 0.0396547C10.1737 -0.0529831 8.98209 0.279829 8.01163 0.977975C6.9935 0.23103 5.72624 -0.107671 4.46507 0.0300787C3.20389 0.167829 2.04247 0.771797 1.21468 1.72036C0.386899 2.66892 -0.0457584 3.89162 0.0038373 5.14223C0.053433 6.39284 0.581598 7.57846 1.48197 8.46035L6.45124 13.3697C6.86736 13.7736 7.42779 14 8.01163 14C8.59547 14 9.15591 13.7736 9.57203 13.3697L14.5413 8.46035C15.4756 7.53316 16 6.279 16 4.97173C16 3.66447 15.4756 2.41031 14.5413 1.48311ZM13.413 7.37114L8.44374 12.2726C8.38719 12.3289 8.31989 12.3736 8.24572 12.4041C8.17156 12.4346 8.09199 12.4503 8.01163 12.4503C7.93127 12.4503 7.85171 12.4346 7.77754 12.4041C7.70337 12.3736 7.63607 12.3289 7.57952 12.2726L2.61026 7.34746C1.98271 6.71473 1.6313 5.86478 1.6313 4.97962C1.6313 4.09447 1.98271 3.24451 2.61026 2.61178C3.24975 1.98903 4.11222 1.63984 5.01087 1.63984C5.90952 1.63984 6.77199 1.98903 7.41148 2.61178C7.48587 2.68576 7.57437 2.74448 7.67188 2.78455C7.7694 2.82462 7.87399 2.84525 7.97962 2.84525C8.08526 2.84525 8.18985 2.82462 8.28736 2.78455C8.38488 2.74448 8.47338 2.68576 8.54777 2.61178C9.18726 1.98903 10.0497 1.63984 10.9484 1.63984C11.847 1.63984 12.7095 1.98903 13.349 2.61178C13.9852 3.23622 14.3481 4.08157 14.3601 4.96675C14.372 5.85192 14.0321 6.70652 13.413 7.34746V7.37114Z" fill="#2E2473"/>
</svg>
