<svg width="393" height="75" viewBox="0 0 393 75" fill="none" xmlns="http://www.w3.org/2000/svg">
<path d="M8.84 27.16C8.84 27.4 8.97333 27.6533 9.24 27.92L9.92 28.56C10.1333 28.7467 10.3733 28.84 10.64 28.84H13.04C13.28 28.84 13.4 28.96 13.4 29.2V30.64C13.4 30.88 13.28 31 13.04 31H0.48C0.24 31 0.12 30.88 0.12 30.64V29.2C0.12 28.96 0.24 28.84 0.48 28.84H2.92C3.18667 28.84 3.41333 28.7467 3.6 28.56L4.32 27.92C4.56 27.7067 4.68 27.4533 4.68 27.16V7.36C4.68 7.09333 4.56 6.85333 4.32 6.64L3.6 6C3.41333 5.81333 3.18667 5.72 2.92 5.72H0.48C0.24 5.72 0.12 5.6 0.12 5.36V3.92C0.12 3.68 0.24 3.56 0.48 3.56H13.04C13.28 3.56 13.4 3.68 13.4 3.92V5.36C13.4 5.6 13.28 5.72 13.04 5.72H10.64C10.3733 5.72 10.1467 5.8 9.96 5.96L9.16 6.68C8.94667 6.89333 8.84 7.13333 8.84 7.4V27.16ZM27.2772 31C27.0372 31 26.9172 30.88 26.9172 30.64V29.2C26.9172 28.96 27.0372 28.84 27.2772 28.84H27.7172C28.1705 28.84 28.5572 28.7067 28.8772 28.44L29.4772 27.96C29.6372 27.8267 29.7572 27.7067 29.8372 27.6C29.9172 27.4667 29.9572 27.2933 29.9572 27.08V17.2C29.9572 14.9867 29.0239 13.9067 27.1572 13.96C26.4105 13.9867 25.7439 14.1867 25.1572 14.56C24.5705 14.9333 23.9705 15.4533 23.3572 16.12L22.9972 16.52C22.8105 16.7333 22.6905 16.9067 22.6372 17.04C22.5839 17.1733 22.5572 17.3867 22.5572 17.68V27.08C22.5572 27.2933 22.5972 27.4667 22.6772 27.6C22.7839 27.7333 22.9305 27.8667 23.1172 28L23.7172 28.48C24.0372 28.72 24.3839 28.84 24.7572 28.84H25.1972C25.4372 28.84 25.5572 28.96 25.5572 29.2V30.64C25.5572 30.88 25.4372 31 25.1972 31H15.6372C15.3705 31 15.2372 30.88 15.2372 30.64V29.2C15.2372 28.96 15.3705 28.84 15.6372 28.84H16.1572C16.6105 28.84 16.9305 28.8133 17.1172 28.76C17.3305 28.7067 17.5305 28.6 17.7172 28.44L18.2372 28C18.3972 27.8667 18.5305 27.7333 18.6372 27.6C18.7439 27.44 18.7972 27.2533 18.7972 27.04V16.2C18.7972 15.9867 18.7439 15.8 18.6372 15.64C18.5305 15.48 18.3972 15.3333 18.2372 15.2L17.7172 14.76C17.5305 14.6 17.3305 14.4933 17.1172 14.44C16.9305 14.3867 16.6105 14.36 16.1572 14.36H15.5972C15.3572 14.36 15.2372 14.24 15.2372 14V13.08C15.2372 12.8667 15.2772 12.7333 15.3572 12.68C15.4372 12.6 15.5705 12.5333 15.7572 12.48L20.4772 10.88C20.7705 10.7733 20.9972 10.7067 21.1572 10.68C21.3439 10.6267 21.5439 10.6 21.7572 10.6H22.1972C22.4372 10.6 22.5572 10.72 22.5572 10.96V14C22.5572 14.1067 22.5972 14.1733 22.6772 14.2C22.7839 14.2267 22.8639 14.1867 22.9172 14.08L23.1972 13.68C23.8372 12.7467 24.5972 12 25.4772 11.44C26.3839 10.88 27.4105 10.6 28.5572 10.6C29.7839 10.6 30.7839 10.9467 31.5572 11.64C32.3572 12.3067 32.9705 13.2267 33.3972 14.4C33.4505 14.5067 33.5172 14.56 33.5972 14.56C33.6772 14.56 33.7439 14.52 33.7972 14.44L34.3172 13.72C34.9572 12.84 35.7305 12.1067 36.6372 11.52C37.5439 10.9067 38.6105 10.6 39.8372 10.6C41.2239 10.6 42.4105 11.0933 43.3972 12.08C44.4105 13.0667 44.9172 14.48 44.9172 16.32V27.12C44.9172 27.3333 44.9572 27.5067 45.0372 27.64C45.1439 27.7467 45.2772 27.8667 45.4372 28L45.9972 28.44C46.2105 28.6 46.3839 28.7067 46.5172 28.76C46.6505 28.8133 46.8639 28.84 47.1572 28.84H48.0772C48.3172 28.84 48.4372 28.96 48.4372 29.2V30.64C48.4372 30.88 48.3172 31 48.0772 31H38.4772C38.2372 31 38.1172 30.88 38.1172 30.64V29.2C38.1172 28.96 38.2372 28.84 38.4772 28.84H38.9572C39.3839 28.84 39.7572 28.7067 40.0772 28.44L40.6772 27.96C40.8372 27.8267 40.9572 27.6933 41.0372 27.56C41.1172 27.4267 41.1572 27.2533 41.1572 27.04V17.2C41.1572 16.1067 40.9039 15.2933 40.3972 14.76C39.8905 14.2 39.2105 13.9333 38.3572 13.96C37.5839 13.9867 36.8905 14.2 36.2772 14.6C35.6639 14.9733 35.0772 15.52 34.5172 16.24L34.1972 16.64C33.8772 17.0667 33.7172 17.4933 33.7172 17.92V27.08C33.7172 27.2933 33.7572 27.4667 33.8372 27.6C33.9439 27.7333 34.0772 27.8667 34.2372 28L34.7972 28.44C35.1439 28.7067 35.5172 28.84 35.9172 28.84H36.3972C36.6372 28.84 36.7572 28.96 36.7572 29.2V30.64C36.7572 30.88 36.6372 31 36.3972 31H27.2772ZM55.2356 26.6C55.2356 26.9733 55.329 27.2533 55.5156 27.44C55.9156 27.8933 56.3956 28.2533 56.9556 28.52C57.5156 28.7867 58.209 28.92 59.0356 28.92C60.2623 28.92 61.3556 28.5733 62.3156 27.88C63.3023 27.16 64.089 26.1867 64.6756 24.96C65.2623 23.7067 65.5556 22.2933 65.5556 20.72C65.5556 19.44 65.3156 18.32 64.8356 17.36C64.3556 16.4 63.7156 15.6533 62.9156 15.12C62.1156 14.5867 61.2356 14.32 60.2756 14.32C59.3956 14.32 58.6223 14.48 57.9556 14.8C57.3156 15.0933 56.7156 15.5067 56.1556 16.04L55.5556 16.6C55.3956 16.76 55.3023 16.9333 55.2756 17.12C55.249 17.28 55.2356 17.4933 55.2356 17.76V26.6ZM47.9156 38.12V36.68C47.9156 36.44 48.0356 36.32 48.2756 36.32H49.3156C49.7423 36.32 50.0756 36.2133 50.3156 36L50.9556 35.44C51.1156 35.3067 51.2356 35.1733 51.3156 35.04C51.4223 34.9067 51.4756 34.7333 51.4756 34.52V16.08C51.4756 15.7333 51.3023 15.4267 50.9556 15.16L50.3956 14.76C50.209 14.6267 50.0223 14.52 49.8356 14.44C49.649 14.36 49.329 14.32 48.8756 14.32H48.3156C48.0756 14.32 47.9556 14.2 47.9556 13.96V13.04C47.9556 12.7733 48.1156 12.5867 48.4356 12.48L53.1556 10.88C53.369 10.8 53.5823 10.7333 53.7956 10.68C54.009 10.6267 54.209 10.6 54.3956 10.6H54.9556C55.1423 10.6 55.2356 10.6933 55.2356 10.88V13.96C55.2356 14.0667 55.2756 14.1333 55.3556 14.16C55.4623 14.1867 55.5556 14.1467 55.6356 14.04L56.1156 13.48C56.9156 12.5467 57.7823 11.84 58.7156 11.36C59.649 10.8533 60.7023 10.6 61.8756 10.6C63.1823 10.6 64.409 10.96 65.5556 11.68C66.729 12.4 67.6756 13.4267 68.3956 14.76C69.1156 16.0933 69.4756 17.7067 69.4756 19.6C69.4756 21.8133 69.009 23.8133 68.0756 25.6C67.169 27.3867 65.929 28.8 64.3556 29.84C62.7823 30.88 60.9956 31.4 58.9956 31.4C57.7956 31.4 56.6623 31.2133 55.5956 30.84C55.3556 30.76 55.2356 30.8267 55.2356 31.04V34.56C55.2356 34.7733 55.289 34.9467 55.3956 35.08C55.5023 35.2133 55.6356 35.3467 55.7956 35.48L56.3556 35.92C56.7023 36.1867 57.0756 36.32 57.4756 36.32H59.6356C59.8756 36.32 59.9956 36.44 59.9956 36.68V38.12C59.9956 38.36 59.8756 38.48 59.6356 38.48H48.2756C48.0356 38.48 47.9156 38.36 47.9156 38.12ZM89.4844 25.8C89.4844 26.04 89.511 26.2133 89.5644 26.32C89.6444 26.4267 89.7777 26.56 89.9644 26.72L90.5644 27.24C90.7777 27.4267 90.951 27.5467 91.0844 27.6C91.2177 27.6267 91.4577 27.64 91.8044 27.64H92.6844C92.9244 27.64 93.0444 27.76 93.0444 28V28.96C93.0444 29.2267 92.871 29.4133 92.5244 29.52L87.8844 31.12C87.6444 31.2 87.4177 31.2667 87.2044 31.32C87.0177 31.3733 86.8177 31.4 86.6044 31.4H86.0844C85.8444 31.4 85.7244 31.28 85.7244 31.04V28C85.7244 27.8667 85.671 27.8 85.5644 27.8C85.4844 27.7733 85.4044 27.8267 85.3244 27.96L85.0044 28.4C84.311 29.36 83.4977 30.1067 82.5644 30.64C81.631 31.1467 80.591 31.4 79.4444 31.4C78.031 31.4 76.8044 30.8933 75.7644 29.88C74.7244 28.84 74.2044 27.4133 74.2044 25.6V14.92C74.2044 14.5733 74.0444 14.28 73.7244 14.04L73.0844 13.52C72.8977 13.36 72.7244 13.2667 72.5644 13.24C72.431 13.1867 72.2177 13.16 71.9244 13.16H71.0444C70.8044 13.16 70.6844 13.04 70.6844 12.8V11.36C70.6844 11.12 70.8044 11 71.0444 11H77.6444C77.8577 11 77.9644 11.12 77.9644 11.36V24.72C77.9644 25.7867 78.2177 26.6133 78.7244 27.2C79.2577 27.76 79.9377 28.04 80.7644 28.04C81.4577 28.04 82.0977 27.88 82.6844 27.56C83.271 27.24 83.9377 26.7333 84.6844 26.04L85.3244 25.44C85.511 25.2533 85.6177 25.1067 85.6444 25C85.6977 24.8667 85.7244 24.6667 85.7244 24.4V15C85.7244 14.8133 85.6977 14.6533 85.6444 14.52C85.6177 14.3867 85.5244 14.2667 85.3644 14.16L84.5644 13.52C84.2444 13.28 83.8844 13.16 83.4844 13.16H82.5244C82.2844 13.16 82.1644 13.04 82.1644 12.8V11.36C82.1644 11.12 82.2844 11 82.5244 11H89.1644C89.3777 11 89.4844 11.12 89.4844 11.36V25.8ZM104.056 28.84C104.296 28.84 104.416 28.96 104.416 29.2V30.64C104.416 30.88 104.296 31 104.056 31H94.1759C93.9359 31 93.8159 30.88 93.8159 30.64V29.2C93.8159 28.96 93.9359 28.84 94.1759 28.84H95.1759C95.4693 28.84 95.6693 28.8267 95.7759 28.8C95.9093 28.7467 96.0559 28.6533 96.2159 28.52L96.8559 27.96C96.9893 27.8267 97.1093 27.6933 97.2159 27.56C97.3226 27.4267 97.3759 27.2533 97.3759 27.04V6.24C97.3759 6.02667 97.3359 5.85333 97.2559 5.72C97.1759 5.58667 97.0426 5.44 96.8559 5.28L96.2959 4.8C96.1093 4.64 95.9359 4.53333 95.7759 4.48C95.6426 4.42667 95.3759 4.4 94.9759 4.4H94.1759C93.9359 4.4 93.8159 4.28 93.8159 4.04V3.12C93.8159 2.82667 93.9893 2.62667 94.3359 2.52L99.0559 0.879999C99.5093 0.719998 99.9093 0.639997 100.256 0.639997H100.776C101.016 0.639997 101.136 0.759998 101.136 0.999998V27.04C101.136 27.2533 101.176 27.4267 101.256 27.56C101.363 27.6933 101.496 27.8267 101.656 27.96L102.256 28.44C102.603 28.7067 102.963 28.84 103.336 28.84H104.056ZM107.464 31.4C107.197 31.4 107.051 31.28 107.024 31.04L106.344 25.08C106.317 24.7867 106.437 24.64 106.704 24.64H108.304C108.571 24.64 108.717 24.7733 108.744 25.04L109.104 26.96C109.157 27.2533 109.224 27.4667 109.304 27.6C109.384 27.7333 109.504 27.8667 109.664 28C110.064 28.2933 110.557 28.56 111.144 28.8C111.731 29.0133 112.437 29.12 113.264 29.12C114.411 29.12 115.317 28.8667 115.984 28.36C116.677 27.8267 117.024 27.1467 117.024 26.32C117.024 25.8133 116.864 25.3733 116.544 25C116.224 24.6 115.677 24.24 114.904 23.92L110.944 22.28C109.531 21.6933 108.491 20.9333 107.824 20C107.157 19.04 106.824 17.9467 106.824 16.72C106.824 15.36 107.131 14.2267 107.744 13.32C108.357 12.4133 109.144 11.7333 110.104 11.28C111.064 10.8267 112.051 10.6 113.064 10.6C113.837 10.6 114.477 10.6933 114.984 10.88C115.517 11.04 115.944 11.2133 116.264 11.4C116.477 11.5067 116.664 11.48 116.824 11.32L117.344 10.84C117.504 10.68 117.704 10.6 117.944 10.6H118.984C119.224 10.6 119.357 10.72 119.384 10.96L120.104 17.08C120.131 17.2933 120.037 17.4 119.824 17.4H118.144C117.904 17.4 117.771 17.2933 117.744 17.08L117.304 15.04C117.277 14.8267 117.224 14.6533 117.144 14.52C117.091 14.36 116.984 14.2133 116.824 14.08C116.477 13.76 116.011 13.4933 115.424 13.28C114.837 13.04 114.197 12.92 113.504 12.92C112.517 12.92 111.731 13.16 111.144 13.64C110.557 14.0933 110.264 14.68 110.264 15.4C110.264 15.9067 110.437 16.36 110.784 16.76C111.131 17.1333 111.744 17.5067 112.624 17.88L116.864 19.68C118.197 20.24 119.144 20.9867 119.704 21.92C120.264 22.8533 120.544 23.8667 120.544 24.96C120.544 26.3467 120.197 27.52 119.504 28.48C118.837 29.44 117.984 30.1733 116.944 30.68C115.931 31.16 114.891 31.4 113.824 31.4C112.944 31.4 112.197 31.3067 111.584 31.12C110.997 30.9333 110.544 30.76 110.224 30.6C109.984 30.4933 109.784 30.52 109.624 30.68L109.104 31.2C108.971 31.3333 108.811 31.4 108.624 31.4H107.464ZM139.049 28.08C139.342 28.08 139.582 27.88 139.769 27.48L140.329 26.12C140.409 25.9067 140.555 25.8 140.769 25.8H142.569C142.862 25.8 142.942 25.96 142.809 26.28L142.049 28.28C141.649 29.32 141.155 30.1067 140.569 30.64C139.982 31.1467 139.182 31.4 138.169 31.4C137.102 31.4 136.302 31.0667 135.769 30.4C135.235 29.7333 134.969 28.96 134.969 28.08C134.969 27.9467 134.915 27.8667 134.809 27.84C134.729 27.8133 134.649 27.8667 134.569 28L134.249 28.48C133.609 29.44 132.809 30.1733 131.849 30.68C130.915 31.16 129.915 31.4 128.849 31.4C127.355 31.4 126.102 30.96 125.089 30.08C124.075 29.2 123.569 27.9867 123.569 26.44C123.569 25.4 123.929 24.3867 124.649 23.4C125.369 22.4133 126.622 21.5867 128.409 20.92L134.089 18.8C134.329 18.72 134.502 18.6133 134.609 18.48C134.715 18.32 134.769 18.08 134.769 17.76V16.24C134.769 15.1733 134.489 14.3467 133.929 13.76C133.369 13.1733 132.555 12.88 131.489 12.88C130.449 12.88 129.715 13.12 129.289 13.6C128.862 14.08 128.675 14.6133 128.729 15.2L128.769 15.6C128.849 16.3467 128.662 16.9867 128.209 17.52C127.755 18.0267 127.142 18.28 126.369 18.28C125.569 18.28 124.969 18.04 124.569 17.56C124.195 17.0533 124.009 16.44 124.009 15.72C124.009 14.9467 124.302 14.1733 124.889 13.4C125.475 12.6 126.329 11.9333 127.449 11.4C128.569 10.8667 129.929 10.6 131.529 10.6C132.702 10.6 133.822 10.7867 134.889 11.16C135.955 11.5067 136.822 12.0933 137.489 12.92C138.182 13.7467 138.529 14.8533 138.529 16.24V27.48C138.529 27.88 138.702 28.08 139.049 28.08ZM127.689 25.84C127.689 26.48 127.889 27.0133 128.289 27.44C128.689 27.8667 129.235 28.08 129.929 28.08C130.569 28.08 131.195 27.9467 131.809 27.68C132.422 27.4133 133.089 26.9067 133.809 26.16L134.409 25.52C134.569 25.36 134.662 25.2133 134.689 25.08C134.742 24.9467 134.769 24.72 134.769 24.4V21.52C134.769 21.04 134.542 20.8933 134.089 21.08L130.889 22.48C129.849 22.9333 129.049 23.4133 128.489 23.92C127.955 24.4267 127.689 25.0667 127.689 25.84ZM155.401 11.92C155.588 11.84 155.721 11.7467 155.801 11.64C155.881 11.5067 155.948 11.3467 156.001 11.16L157.081 7.64C157.161 7.4 157.308 7.28 157.521 7.28H159.281C159.521 7.28 159.641 7.4 159.641 7.64L159.761 12C159.761 12.24 159.881 12.36 160.121 12.36H164.921C165.161 12.36 165.281 12.48 165.281 12.72V14.88C165.281 15.12 165.161 15.24 164.921 15.24H160.081C159.841 15.24 159.721 15.36 159.721 15.6L159.841 26.44C159.841 27.5333 160.268 28.08 161.121 28.08C161.788 28.08 162.295 27.68 162.641 26.88L162.961 26.12C163.068 25.9067 163.215 25.8 163.401 25.8H165.161C165.481 25.8 165.575 25.96 165.441 26.28L164.681 28.28C164.281 29.32 163.721 30.1067 163.001 30.64C162.281 31.1467 161.348 31.4 160.201 31.4C158.868 31.4 157.788 30.9467 156.961 30.04C156.135 29.1333 155.735 27.88 155.761 26.28L155.961 15.6C155.961 15.36 155.841 15.24 155.601 15.24H153.161C152.921 15.24 152.801 15.12 152.801 14.88V13.6C152.801 13.3067 152.895 13.12 153.081 13.04L155.401 11.92ZM185.578 25.8C185.578 26.04 185.605 26.2133 185.658 26.32C185.738 26.4267 185.871 26.56 186.058 26.72L186.658 27.24C186.871 27.4267 187.045 27.5467 187.178 27.6C187.311 27.6267 187.551 27.64 187.898 27.64H188.778C189.018 27.64 189.138 27.76 189.138 28V28.96C189.138 29.2267 188.965 29.4133 188.618 29.52L183.978 31.12C183.738 31.2 183.511 31.2667 183.298 31.32C183.111 31.3733 182.911 31.4 182.698 31.4H182.178C181.938 31.4 181.818 31.28 181.818 31.04V28C181.818 27.8667 181.765 27.8 181.658 27.8C181.578 27.7733 181.498 27.8267 181.418 27.96L181.098 28.4C180.405 29.36 179.591 30.1067 178.658 30.64C177.725 31.1467 176.685 31.4 175.538 31.4C174.125 31.4 172.898 30.8933 171.858 29.88C170.818 28.84 170.298 27.4133 170.298 25.6V14.92C170.298 14.5733 170.138 14.28 169.818 14.04L169.178 13.52C168.991 13.36 168.818 13.2667 168.658 13.24C168.525 13.1867 168.311 13.16 168.018 13.16H167.138C166.898 13.16 166.778 13.04 166.778 12.8V11.36C166.778 11.12 166.898 11 167.138 11H173.738C173.951 11 174.058 11.12 174.058 11.36V24.72C174.058 25.7867 174.311 26.6133 174.818 27.2C175.351 27.76 176.031 28.04 176.858 28.04C177.551 28.04 178.191 27.88 178.778 27.56C179.365 27.24 180.031 26.7333 180.778 26.04L181.418 25.44C181.605 25.2533 181.711 25.1067 181.738 25C181.791 24.8667 181.818 24.6667 181.818 24.4V15C181.818 14.8133 181.791 14.6533 181.738 14.52C181.711 14.3867 181.618 14.2667 181.458 14.16L180.658 13.52C180.338 13.28 179.978 13.16 179.578 13.16H178.618C178.378 13.16 178.258 13.04 178.258 12.8V11.36C178.258 11.12 178.378 11 178.618 11H185.258C185.471 11 185.578 11.12 185.578 11.36V25.8ZM217.47 24.12C217.79 24.12 217.896 24.2933 217.79 24.64L217.43 25.72C216.816 27.56 215.803 28.9733 214.39 29.96C213.003 30.92 211.456 31.4 209.75 31.4C207.99 31.4 206.443 30.96 205.11 30.08C203.803 29.2 202.776 28 202.03 26.48C201.283 24.9333 200.91 23.1733 200.91 21.2C200.91 19.92 201.096 18.6533 201.47 17.4C201.843 16.12 202.416 14.9733 203.19 13.96C203.963 12.9467 204.923 12.1333 206.07 11.52C207.243 10.9067 208.63 10.6 210.23 10.6C211.563 10.6 212.696 10.84 213.63 11.32C214.59 11.8 215.363 12.4267 215.95 13.2C216.563 13.9733 217.016 14.8267 217.31 15.76C217.603 16.6933 217.75 17.6 217.75 18.48C217.75 18.8533 217.67 19.1733 217.51 19.44C217.376 19.68 217.083 19.8 216.63 19.8H204.87C204.656 19.8 204.55 19.8933 204.55 20.08C204.55 21.3067 204.763 22.4933 205.19 23.64C205.643 24.76 206.31 25.68 207.19 26.4C208.07 27.12 209.163 27.48 210.47 27.48C212.576 27.48 214.07 26.5733 214.95 24.76L215.07 24.52C215.203 24.2533 215.376 24.12 215.59 24.12H217.47ZM204.87 17.16C204.816 17.4 204.923 17.52 205.19 17.52H213.27C213.483 17.52 213.59 17.4267 213.59 17.24C213.59 16.0133 213.27 14.9867 212.63 14.16C211.99 13.3333 211.016 12.92 209.71 12.92C208.483 12.92 207.43 13.3067 206.55 14.08C205.67 14.8533 205.11 15.88 204.87 17.16ZM234.711 25.44C234.897 25.2533 235.004 25.08 235.031 24.92C235.057 24.76 235.071 24.5467 235.071 24.28V15.44C235.071 15.2267 235.044 15.0533 234.991 14.92C234.937 14.7867 234.871 14.6667 234.791 14.56C234.444 14.1067 233.964 13.7467 233.351 13.48C232.737 13.2133 232.017 13.08 231.191 13.08C229.991 13.08 228.897 13.44 227.911 14.16C226.951 14.8533 226.177 15.8267 225.591 17.08C225.031 18.3067 224.751 19.72 224.751 21.32C224.751 22.7333 225.017 23.92 225.551 24.88C226.084 25.8133 226.764 26.52 227.591 27C228.417 27.4533 229.244 27.68 230.071 27.68C230.924 27.68 231.684 27.52 232.351 27.2C233.017 26.8533 233.631 26.4267 234.191 25.92L234.711 25.44ZM220.831 22.4C220.831 20.1333 221.297 18.12 222.231 16.36C223.164 14.5733 224.417 13.1733 225.991 12.16C227.591 11.12 229.391 10.6 231.391 10.6C232.057 10.6 232.711 10.6533 233.351 10.76C233.991 10.8667 234.537 10.9867 234.991 11.12C235.151 11.1467 235.284 11.16 235.391 11.16C235.497 11.16 235.604 11.0667 235.711 10.88L236.271 10.04C236.431 9.8 236.551 9.65333 236.631 9.6C236.737 9.54667 236.897 9.52 237.111 9.52H238.471C238.711 9.52 238.831 9.64 238.831 9.88V34.52C238.831 34.7333 238.871 34.9067 238.951 35.04C239.057 35.1733 239.191 35.3067 239.351 35.44L239.991 36C240.231 36.2133 240.564 36.32 240.991 36.32H242.031C242.271 36.32 242.391 36.44 242.391 36.68V38.12C242.391 38.36 242.271 38.48 242.031 38.48H230.671C230.431 38.48 230.311 38.36 230.311 38.12V36.68C230.311 36.44 230.431 36.32 230.671 36.32H232.831C233.257 36.32 233.631 36.1867 233.951 35.92L234.511 35.48C234.671 35.3467 234.804 35.2133 234.911 35.08C235.017 34.9467 235.071 34.7733 235.071 34.56V28.04C235.071 27.9067 235.017 27.84 234.911 27.84C234.831 27.8133 234.751 27.8533 234.671 27.96L234.151 28.56C233.351 29.4667 232.484 30.1733 231.551 30.68C230.644 31.16 229.591 31.4 228.391 31.4C227.244 31.4 226.084 31.0667 224.911 30.4C223.764 29.7333 222.791 28.7333 221.991 27.4C221.217 26.0667 220.831 24.4 220.831 22.4ZM260.07 25.8C260.07 26.04 260.097 26.2133 260.15 26.32C260.23 26.4267 260.364 26.56 260.55 26.72L261.15 27.24C261.364 27.4267 261.537 27.5467 261.67 27.6C261.804 27.6267 262.044 27.64 262.39 27.64H263.27C263.51 27.64 263.63 27.76 263.63 28V28.96C263.63 29.2267 263.457 29.4133 263.11 29.52L258.47 31.12C258.23 31.2 258.004 31.2667 257.79 31.32C257.604 31.3733 257.404 31.4 257.19 31.4H256.67C256.43 31.4 256.31 31.28 256.31 31.04V28C256.31 27.8667 256.257 27.8 256.15 27.8C256.07 27.7733 255.99 27.8267 255.91 27.96L255.59 28.4C254.897 29.36 254.084 30.1067 253.15 30.64C252.217 31.1467 251.177 31.4 250.03 31.4C248.617 31.4 247.39 30.8933 246.35 29.88C245.31 28.84 244.79 27.4133 244.79 25.6V14.92C244.79 14.5733 244.63 14.28 244.31 14.04L243.67 13.52C243.484 13.36 243.31 13.2667 243.15 13.24C243.017 13.1867 242.804 13.16 242.51 13.16H241.63C241.39 13.16 241.27 13.04 241.27 12.8V11.36C241.27 11.12 241.39 11 241.63 11H248.23C248.444 11 248.55 11.12 248.55 11.36V24.72C248.55 25.7867 248.804 26.6133 249.31 27.2C249.844 27.76 250.524 28.04 251.35 28.04C252.044 28.04 252.684 27.88 253.27 27.56C253.857 27.24 254.524 26.7333 255.27 26.04L255.91 25.44C256.097 25.2533 256.204 25.1067 256.23 25C256.284 24.8667 256.31 24.6667 256.31 24.4V15C256.31 14.8133 256.284 14.6533 256.23 14.52C256.204 14.3867 256.11 14.2667 255.95 14.16L255.15 13.52C254.83 13.28 254.47 13.16 254.07 13.16H253.11C252.87 13.16 252.75 13.04 252.75 12.8V11.36C252.75 11.12 252.87 11 253.11 11H259.75C259.964 11 260.07 11.12 260.07 11.36V25.8ZM275.322 28.84C275.562 28.84 275.682 28.96 275.682 29.2V30.64C275.682 30.88 275.562 31 275.322 31H265.442C265.202 31 265.082 30.88 265.082 30.64V29.2C265.082 28.96 265.202 28.84 265.442 28.84H266.442C266.735 28.84 266.935 28.8267 267.042 28.8C267.175 28.7467 267.322 28.6533 267.482 28.52L268.122 27.96C268.255 27.8267 268.375 27.6933 268.482 27.56C268.589 27.4267 268.642 27.2533 268.642 27.04V16.16C268.642 15.9467 268.602 15.7867 268.522 15.68C268.442 15.5467 268.309 15.4 268.122 15.24L267.562 14.76C267.375 14.6 267.202 14.4933 267.042 14.44C266.909 14.3867 266.629 14.36 266.202 14.36H265.442C265.202 14.36 265.082 14.24 265.082 14V13.08C265.082 12.7867 265.255 12.5867 265.602 12.48L270.322 10.88C270.855 10.6933 271.255 10.6 271.522 10.6H272.042C272.282 10.6 272.402 10.72 272.402 10.96V27.04C272.402 27.2533 272.442 27.4267 272.522 27.56C272.629 27.6933 272.762 27.8267 272.922 27.96L273.522 28.44C273.869 28.7067 274.229 28.84 274.602 28.84H275.322ZM267.522 4.92C267.522 4.14667 267.789 3.49333 268.322 2.96C268.882 2.4 269.562 2.12 270.362 2.12C271.135 2.12 271.789 2.4 272.322 2.96C272.882 3.49333 273.162 4.14667 273.162 4.92C273.162 5.69333 272.882 6.36 272.322 6.92C271.789 7.48 271.135 7.76 270.362 7.76C269.562 7.76 268.882 7.48 268.322 6.92C267.789 6.36 267.522 5.69333 267.522 4.92ZM282.736 26.6C282.736 26.9733 282.829 27.2533 283.016 27.44C283.416 27.8933 283.896 28.2533 284.456 28.52C285.016 28.7867 285.709 28.92 286.536 28.92C287.762 28.92 288.856 28.5733 289.816 27.88C290.802 27.16 291.589 26.1867 292.176 24.96C292.762 23.7067 293.056 22.2933 293.056 20.72C293.056 19.44 292.816 18.32 292.336 17.36C291.856 16.4 291.216 15.6533 290.416 15.12C289.616 14.5867 288.736 14.32 287.776 14.32C286.896 14.32 286.122 14.48 285.456 14.8C284.816 15.0933 284.216 15.5067 283.656 16.04L283.056 16.6C282.896 16.76 282.802 16.9333 282.776 17.12C282.749 17.28 282.736 17.4933 282.736 17.76V26.6ZM275.416 38.12V36.68C275.416 36.44 275.536 36.32 275.776 36.32H276.816C277.242 36.32 277.576 36.2133 277.816 36L278.456 35.44C278.616 35.3067 278.736 35.1733 278.816 35.04C278.922 34.9067 278.976 34.7333 278.976 34.52V16.08C278.976 15.7333 278.802 15.4267 278.456 15.16L277.896 14.76C277.709 14.6267 277.522 14.52 277.336 14.44C277.149 14.36 276.829 14.32 276.376 14.32H275.816C275.576 14.32 275.456 14.2 275.456 13.96V13.04C275.456 12.7733 275.616 12.5867 275.936 12.48L280.656 10.88C280.869 10.8 281.082 10.7333 281.296 10.68C281.509 10.6267 281.709 10.6 281.896 10.6H282.456C282.642 10.6 282.736 10.6933 282.736 10.88V13.96C282.736 14.0667 282.776 14.1333 282.856 14.16C282.962 14.1867 283.056 14.1467 283.136 14.04L283.616 13.48C284.416 12.5467 285.282 11.84 286.216 11.36C287.149 10.8533 288.202 10.6 289.376 10.6C290.682 10.6 291.909 10.96 293.056 11.68C294.229 12.4 295.176 13.4267 295.896 14.76C296.616 16.0933 296.976 17.7067 296.976 19.6C296.976 21.8133 296.509 23.8133 295.576 25.6C294.669 27.3867 293.429 28.8 291.856 29.84C290.282 30.88 288.496 31.4 286.496 31.4C285.296 31.4 284.162 31.2133 283.096 30.84C282.856 30.76 282.736 30.8267 282.736 31.04V34.56C282.736 34.7733 282.789 34.9467 282.896 35.08C283.002 35.2133 283.136 35.3467 283.296 35.48L283.856 35.92C284.202 36.1867 284.576 36.32 284.976 36.32H287.136C287.376 36.32 287.496 36.44 287.496 36.68V38.12C287.496 38.36 287.376 38.48 287.136 38.48H275.776C275.536 38.48 275.416 38.36 275.416 38.12ZM309.218 31.4C307.271 31.4 305.564 30.9333 304.098 30C302.658 29.0667 301.538 27.8267 300.738 26.28C299.964 24.7333 299.578 23.0267 299.578 21.16C299.578 19.6933 299.844 18.3333 300.378 17.08C300.911 15.8 301.644 14.68 302.578 13.72C303.511 12.7333 304.591 11.9733 305.818 11.44C307.044 10.88 308.351 10.6 309.738 10.6C311.711 10.6 313.418 11.0667 314.858 12C316.298 12.9333 317.404 14.1867 318.178 15.76C318.978 17.3067 319.378 19.0133 319.378 20.88C319.378 22.8267 318.911 24.6 317.978 26.2C317.071 27.7733 315.844 29.04 314.298 30C312.778 30.9333 311.084 31.4 309.218 31.4ZM303.818 20.8C303.818 22.32 304.031 23.68 304.458 24.88C304.911 26.08 305.564 27.0267 306.418 27.72C307.271 28.4133 308.311 28.76 309.538 28.76C311.084 28.76 312.404 28.1333 313.498 26.88C314.591 25.6 315.138 23.72 315.138 21.24C315.138 19.72 314.911 18.36 314.458 17.16C314.031 15.96 313.391 15.0133 312.538 14.32C311.711 13.6267 310.684 13.28 309.458 13.28C307.911 13.28 306.578 13.9067 305.458 15.16C304.364 16.4133 303.818 18.2933 303.818 20.8ZM324.37 31.4C323.544 31.4 322.824 31.1067 322.21 30.52C321.597 29.9067 321.29 29.1733 321.29 28.32C321.29 27.4667 321.597 26.7467 322.21 26.16C322.824 25.5467 323.544 25.24 324.37 25.24C325.224 25.24 325.944 25.5467 326.53 26.16C327.144 26.7467 327.45 27.4667 327.45 28.32C327.45 29.1733 327.144 29.9067 326.53 30.52C325.944 31.1067 325.224 31.4 324.37 31.4ZM25.16 64.64C25.4533 64.64 25.5467 64.7733 25.44 65.04L24.96 66.4C24.2933 68.2667 23.36 69.8 22.16 71C20.9867 72.1733 19.64 73.04 18.12 73.6C16.6 74.1333 14.9733 74.4 13.24 74.4C10.76 74.4 8.54667 73.8267 6.6 72.68C4.65333 71.5333 3.12 69.92 2 67.84C0.88 65.76 0.32 63.32 0.32 60.52C0.32 58.6 0.64 56.7867 1.28 55.08C1.92 53.3467 2.84 51.8133 4.04 50.48C5.24 49.1467 6.66667 48.0933 8.32 47.32C10 46.5467 11.8533 46.16 13.88 46.16C14.9467 46.16 15.9333 46.28 16.84 46.52C17.7467 46.7333 18.44 46.9467 18.92 47.16C19.2667 47.32 19.56 47.3067 19.8 47.12L21.04 46.28C21.2267 46.1733 21.4667 46.12 21.76 46.12H22.76C23.0267 46.12 23.1733 46.24 23.2 46.48L23.8 54.2C23.8267 54.4933 23.7067 54.64 23.44 54.64H21.64C21.4 54.64 21.2667 54.5067 21.24 54.24L20.84 51.68C20.7867 51.3333 20.72 51.08 20.64 50.92C20.5867 50.7333 20.4667 50.56 20.28 50.4C19.7467 49.9467 19 49.56 18.04 49.24C17.1067 48.92 16 48.76 14.72 48.76C12.7467 48.76 11 49.2133 9.48 50.12C7.98667 51 6.81333 52.2533 5.96 53.88C5.10667 55.5067 4.68 57.4 4.68 59.56C4.68 61.8 5.09333 63.7333 5.92 65.36C6.77333 66.96 7.92 68.2 9.36 69.08C10.8 69.9333 12.4 70.36 14.16 70.36C16.24 70.36 17.9333 69.9733 19.24 69.2C20.5467 68.4 21.5067 67.32 22.12 65.96L22.56 65C22.6933 64.76 22.8667 64.64 23.08 64.64H25.16ZM36.9522 74.4C35.0055 74.4 33.2989 73.9333 31.8322 73C30.3922 72.0667 29.2722 70.8267 28.4722 69.28C27.6989 67.7333 27.3122 66.0267 27.3122 64.16C27.3122 62.6933 27.5789 61.3333 28.1122 60.08C28.6455 58.8 29.3789 57.68 30.3122 56.72C31.2455 55.7333 32.3255 54.9733 33.5522 54.44C34.7789 53.88 36.0855 53.6 37.4722 53.6C39.4455 53.6 41.1522 54.0667 42.5922 55C44.0322 55.9333 45.1389 57.1867 45.9122 58.76C46.7122 60.3067 47.1122 62.0133 47.1122 63.88C47.1122 65.8267 46.6455 67.6 45.7122 69.2C44.8055 70.7733 43.5789 72.04 42.0322 73C40.5122 73.9333 38.8189 74.4 36.9522 74.4ZM31.5522 63.8C31.5522 65.32 31.7655 66.68 32.1922 67.88C32.6455 69.08 33.2989 70.0267 34.1522 70.72C35.0055 71.4133 36.0455 71.76 37.2722 71.76C38.8189 71.76 40.1389 71.1333 41.2322 69.88C42.3255 68.6 42.8722 66.72 42.8722 64.24C42.8722 62.72 42.6455 61.36 42.1922 60.16C41.7655 58.96 41.1255 58.0133 40.2722 57.32C39.4455 56.6267 38.4189 56.28 37.1922 56.28C35.6455 56.28 34.3122 56.9067 33.1922 58.16C32.0989 59.4133 31.5522 61.2933 31.5522 63.8ZM56.5119 59.56C56.3252 59.72 56.2052 59.88 56.1519 60.04C56.1252 60.1733 56.1119 60.3733 56.1119 60.64V70.04C56.1119 70.28 56.1519 70.4667 56.2319 70.6C56.3385 70.7333 56.4852 70.8667 56.6719 71L57.2719 71.48C57.5919 71.72 57.9252 71.84 58.2719 71.84H59.0319C59.2719 71.84 59.3919 71.96 59.3919 72.2V73.64C59.3919 73.88 59.2719 74 59.0319 74H49.1519C48.9119 74 48.7919 73.88 48.7919 73.64V72.2C48.7919 71.96 48.9119 71.84 49.1519 71.84H50.1119C50.4052 71.84 50.6052 71.8267 50.7119 71.8C50.8452 71.7733 51.0052 71.68 51.1919 71.52L51.8319 70.96C52.0185 70.8 52.1519 70.6667 52.2319 70.56C52.3119 70.4267 52.3519 70.2533 52.3519 70.04V59.16C52.3519 58.84 52.1919 58.5467 51.8719 58.28L51.1919 57.68C50.9519 57.4667 50.5785 57.36 50.0719 57.36H49.1519C48.9119 57.36 48.7919 57.24 48.7919 57V56.08C48.7919 55.8133 48.9252 55.6267 49.1919 55.52L54.1519 53.84C54.6052 53.68 55.0052 53.6 55.3519 53.6H55.7519C55.9919 53.6 56.1119 53.72 56.1119 53.96V57C56.1119 57.1067 56.1519 57.1733 56.2319 57.2C56.3119 57.2267 56.3919 57.1867 56.4719 57.08L56.7919 56.64C57.4852 55.7067 58.2852 54.9733 59.1919 54.44C60.1252 53.88 61.2452 53.6 62.5519 53.6C64.0452 53.6 65.3252 54.12 66.3919 55.16C67.4585 56.1733 67.9919 57.6 67.9919 59.44V70.08C67.9919 70.4267 68.1519 70.72 68.4719 70.96L69.1119 71.48C69.3252 71.64 69.4985 71.7467 69.6319 71.8C69.7652 71.8267 69.9652 71.84 70.2319 71.84H71.1519C71.3919 71.84 71.5119 71.96 71.5119 72.2V73.64C71.5119 73.88 71.3919 74 71.1519 74H61.3519C61.1119 74 60.9919 73.88 60.9919 73.64V72.2C60.9919 71.96 61.1119 71.84 61.3519 71.84H62.0319C62.4585 71.84 62.8319 71.7067 63.1519 71.44L63.7919 70.92C64.0852 70.68 64.2319 70.4 64.2319 70.08V60.32C64.2319 59.2267 63.9385 58.4 63.3519 57.84C62.7919 57.2533 62.0585 56.96 61.1519 56.96C60.4052 56.96 59.7385 57.12 59.1519 57.44C58.5652 57.76 57.8985 58.2667 57.1519 58.96L56.5119 59.56ZM89.1884 67.12C89.5084 67.12 89.6151 67.2933 89.5084 67.64L89.1484 68.72C88.5351 70.56 87.5218 71.9733 86.1084 72.96C84.7218 73.92 83.1751 74.4 81.4684 74.4C79.7084 74.4 78.1618 73.96 76.8284 73.08C75.5218 72.2 74.4951 71 73.7484 69.48C73.0018 67.9333 72.6284 66.1733 72.6284 64.2C72.6284 62.92 72.8151 61.6533 73.1884 60.4C73.5618 59.12 74.1351 57.9733 74.9084 56.96C75.6818 55.9467 76.6418 55.1333 77.7884 54.52C78.9618 53.9067 80.3484 53.6 81.9484 53.6C83.2818 53.6 84.4151 53.84 85.3484 54.32C86.3084 54.8 87.0818 55.4267 87.6684 56.2C88.2818 56.9733 88.7351 57.8267 89.0284 58.76C89.3218 59.6933 89.4684 60.6 89.4684 61.48C89.4684 61.8533 89.3884 62.1733 89.2284 62.44C89.0951 62.68 88.8018 62.8 88.3484 62.8H76.5884C76.3751 62.8 76.2684 62.8933 76.2684 63.08C76.2684 64.3067 76.4818 65.4933 76.9084 66.64C77.3618 67.76 78.0284 68.68 78.9084 69.4C79.7884 70.12 80.8818 70.48 82.1884 70.48C84.2951 70.48 85.7884 69.5733 86.6684 67.76L86.7884 67.52C86.9218 67.2533 87.0951 67.12 87.3084 67.12H89.1884ZM76.5884 60.16C76.5351 60.4 76.6418 60.52 76.9084 60.52H84.9884C85.2018 60.52 85.3084 60.4267 85.3084 60.24C85.3084 59.0133 84.9884 57.9867 84.3484 57.16C83.7084 56.3333 82.7351 55.92 81.4284 55.92C80.2018 55.92 79.1484 56.3067 78.2684 57.08C77.3884 57.8533 76.8284 58.88 76.5884 60.16ZM104.589 58.76C104.643 57.8533 104.376 57.1733 103.789 56.72C103.229 56.24 102.523 56 101.669 56C100.469 56 99.4694 56.36 98.6694 57.08C97.8694 57.7733 97.2694 58.6533 96.8694 59.72C96.4694 60.7867 96.2694 61.88 96.2694 63C96.2694 64.2533 96.4827 65.4533 96.9094 66.6C97.336 67.7467 97.976 68.68 98.8294 69.4C99.7094 70.12 100.789 70.48 102.069 70.48C103.243 70.48 104.176 70.2533 104.869 69.8C105.589 69.3467 106.176 68.6667 106.629 67.76L106.789 67.44C106.896 67.2267 107.069 67.12 107.309 67.12H109.149C109.443 67.12 109.549 67.28 109.469 67.6L109.149 68.6C108.563 70.4933 107.549 71.9333 106.109 72.92C104.669 73.9067 103.083 74.4 101.349 74.4C99.616 74.4 98.0827 73.9733 96.7494 73.12C95.416 72.2667 94.376 71.0933 93.6294 69.6C92.9094 68.08 92.5494 66.3467 92.5494 64.4C92.5494 63.2 92.736 61.9733 93.1094 60.72C93.5094 59.44 94.096 58.2667 94.8694 57.2C95.6694 56.1333 96.6694 55.2667 97.8694 54.6C99.0694 53.9333 100.496 53.6 102.149 53.6C103.536 53.6 104.749 53.8533 105.789 54.36C106.829 54.84 107.643 55.4933 108.229 56.32C108.843 57.1467 109.149 58.04 109.149 59C109.149 59.8267 108.936 60.4933 108.509 61C108.109 61.5067 107.523 61.76 106.749 61.76C105.976 61.76 105.403 61.5067 105.029 61C104.683 60.4933 104.523 59.9467 104.549 59.36L104.589 58.76ZM113.839 54.92C114.025 54.84 114.159 54.7467 114.239 54.64C114.319 54.5067 114.385 54.3467 114.439 54.16L115.519 50.64C115.599 50.4 115.745 50.28 115.959 50.28H117.719C117.959 50.28 118.079 50.4 118.079 50.64L118.199 55C118.199 55.24 118.319 55.36 118.559 55.36H123.359C123.599 55.36 123.719 55.48 123.719 55.72V57.88C123.719 58.12 123.599 58.24 123.359 58.24H118.519C118.279 58.24 118.159 58.36 118.159 58.6L118.279 69.44C118.279 70.5333 118.705 71.08 119.559 71.08C120.225 71.08 120.732 70.68 121.079 69.88L121.399 69.12C121.505 68.9067 121.652 68.8 121.839 68.8H123.599C123.919 68.8 124.012 68.96 123.879 69.28L123.119 71.28C122.719 72.32 122.159 73.1067 121.439 73.64C120.719 74.1467 119.785 74.4 118.639 74.4C117.305 74.4 116.225 73.9467 115.399 73.04C114.572 72.1333 114.172 70.88 114.199 69.28L114.399 58.6C114.399 58.36 114.279 58.24 114.039 58.24H111.599C111.359 58.24 111.239 58.12 111.239 57.88V56.6C111.239 56.3067 111.332 56.12 111.519 56.04L113.839 54.92ZM142.018 71.08C142.311 71.08 142.551 70.88 142.738 70.48L143.298 69.12C143.378 68.9067 143.524 68.8 143.738 68.8H145.538C145.831 68.8 145.911 68.96 145.778 69.28L145.018 71.28C144.618 72.32 144.124 73.1067 143.538 73.64C142.951 74.1467 142.151 74.4 141.138 74.4C140.071 74.4 139.271 74.0667 138.738 73.4C138.204 72.7333 137.938 71.96 137.938 71.08C137.938 70.9467 137.884 70.8667 137.778 70.84C137.698 70.8133 137.618 70.8667 137.538 71L137.218 71.48C136.578 72.44 135.778 73.1733 134.818 73.68C133.884 74.16 132.884 74.4 131.818 74.4C130.324 74.4 129.071 73.96 128.058 73.08C127.044 72.2 126.538 70.9867 126.538 69.44C126.538 68.4 126.898 67.3867 127.618 66.4C128.338 65.4133 129.591 64.5867 131.378 63.92L137.058 61.8C137.298 61.72 137.471 61.6133 137.578 61.48C137.684 61.32 137.738 61.08 137.738 60.76V59.24C137.738 58.1733 137.458 57.3467 136.898 56.76C136.338 56.1733 135.524 55.88 134.458 55.88C133.418 55.88 132.684 56.12 132.258 56.6C131.831 57.08 131.644 57.6133 131.698 58.2L131.738 58.6C131.818 59.3467 131.631 59.9867 131.178 60.52C130.724 61.0267 130.111 61.28 129.338 61.28C128.538 61.28 127.938 61.04 127.538 60.56C127.164 60.0533 126.978 59.44 126.978 58.72C126.978 57.9467 127.271 57.1733 127.858 56.4C128.444 55.6 129.298 54.9333 130.418 54.4C131.538 53.8667 132.898 53.6 134.498 53.6C135.671 53.6 136.791 53.7867 137.858 54.16C138.924 54.5067 139.791 55.0933 140.458 55.92C141.151 56.7467 141.498 57.8533 141.498 59.24V70.48C141.498 70.88 141.671 71.08 142.018 71.08ZM130.658 68.84C130.658 69.48 130.858 70.0133 131.258 70.44C131.658 70.8667 132.204 71.08 132.898 71.08C133.538 71.08 134.164 70.9467 134.778 70.68C135.391 70.4133 136.058 69.9067 136.778 69.16L137.378 68.52C137.538 68.36 137.631 68.2133 137.658 68.08C137.711 67.9467 137.738 67.72 137.738 67.4V64.52C137.738 64.04 137.511 63.8933 137.058 64.08L133.858 65.48C132.818 65.9333 132.018 66.4133 131.458 66.92C130.924 67.4267 130.658 68.0667 130.658 68.84ZM168.73 58.76C168.783 57.8533 168.517 57.1733 167.93 56.72C167.37 56.24 166.663 56 165.81 56C164.61 56 163.61 56.36 162.81 57.08C162.01 57.7733 161.41 58.6533 161.01 59.72C160.61 60.7867 160.41 61.88 160.41 63C160.41 64.2533 160.623 65.4533 161.05 66.6C161.477 67.7467 162.117 68.68 162.97 69.4C163.85 70.12 164.93 70.48 166.21 70.48C167.383 70.48 168.317 70.2533 169.01 69.8C169.73 69.3467 170.317 68.6667 170.77 67.76L170.93 67.44C171.037 67.2267 171.21 67.12 171.45 67.12H173.29C173.583 67.12 173.69 67.28 173.61 67.6L173.29 68.6C172.703 70.4933 171.69 71.9333 170.25 72.92C168.81 73.9067 167.223 74.4 165.49 74.4C163.757 74.4 162.223 73.9733 160.89 73.12C159.557 72.2667 158.517 71.0933 157.77 69.6C157.05 68.08 156.69 66.3467 156.69 64.4C156.69 63.2 156.877 61.9733 157.25 60.72C157.65 59.44 158.237 58.2667 159.01 57.2C159.81 56.1333 160.81 55.2667 162.01 54.6C163.21 53.9333 164.637 53.6 166.29 53.6C167.677 53.6 168.89 53.8533 169.93 54.36C170.97 54.84 171.783 55.4933 172.37 56.32C172.983 57.1467 173.29 58.04 173.29 59C173.29 59.8267 173.077 60.4933 172.65 61C172.25 61.5067 171.663 61.76 170.89 61.76C170.117 61.76 169.543 61.5067 169.17 61C168.823 60.4933 168.663 59.9467 168.69 59.36L168.73 58.76ZM185.898 74.4C183.951 74.4 182.244 73.9333 180.778 73C179.338 72.0667 178.218 70.8267 177.418 69.28C176.644 67.7333 176.257 66.0267 176.257 64.16C176.257 62.6933 176.524 61.3333 177.058 60.08C177.591 58.8 178.324 57.68 179.258 56.72C180.191 55.7333 181.271 54.9733 182.498 54.44C183.724 53.88 185.031 53.6 186.418 53.6C188.391 53.6 190.098 54.0667 191.538 55C192.978 55.9333 194.084 57.1867 194.858 58.76C195.658 60.3067 196.057 62.0133 196.057 63.88C196.057 65.8267 195.591 67.6 194.658 69.2C193.751 70.7733 192.524 72.04 190.978 73C189.458 73.9333 187.764 74.4 185.898 74.4ZM180.498 63.8C180.498 65.32 180.711 66.68 181.138 67.88C181.591 69.08 182.244 70.0267 183.098 70.72C183.951 71.4133 184.991 71.76 186.218 71.76C187.764 71.76 189.084 71.1333 190.178 69.88C191.271 68.6 191.818 66.72 191.818 64.24C191.818 62.72 191.591 61.36 191.138 60.16C190.711 58.96 190.071 58.0133 189.218 57.32C188.391 56.6267 187.364 56.28 186.138 56.28C184.591 56.28 183.258 56.9067 182.138 58.16C181.044 59.4133 180.498 61.2933 180.498 63.8ZM205.457 59.56C205.271 59.72 205.151 59.88 205.097 60.04C205.071 60.1733 205.057 60.3733 205.057 60.64V70.04C205.057 70.28 205.097 70.4667 205.177 70.6C205.284 70.7333 205.431 70.8667 205.617 71L206.217 71.48C206.537 71.72 206.871 71.84 207.217 71.84H207.977C208.217 71.84 208.337 71.96 208.337 72.2V73.64C208.337 73.88 208.217 74 207.977 74H198.097C197.857 74 197.737 73.88 197.737 73.64V72.2C197.737 71.96 197.857 71.84 198.097 71.84H199.057C199.351 71.84 199.551 71.8267 199.657 71.8C199.791 71.7733 199.951 71.68 200.137 71.52L200.777 70.96C200.964 70.8 201.097 70.6667 201.177 70.56C201.257 70.4267 201.297 70.2533 201.297 70.04V59.16C201.297 58.84 201.137 58.5467 200.817 58.28L200.137 57.68C199.897 57.4667 199.524 57.36 199.017 57.36H198.097C197.857 57.36 197.737 57.24 197.737 57V56.08C197.737 55.8133 197.871 55.6267 198.137 55.52L203.097 53.84C203.551 53.68 203.951 53.6 204.297 53.6H204.697C204.937 53.6 205.057 53.72 205.057 53.96V57C205.057 57.1067 205.097 57.1733 205.177 57.2C205.257 57.2267 205.337 57.1867 205.417 57.08L205.737 56.64C206.431 55.7067 207.231 54.9733 208.137 54.44C209.071 53.88 210.191 53.6 211.497 53.6C212.991 53.6 214.271 54.12 215.337 55.16C216.404 56.1733 216.937 57.6 216.937 59.44V70.08C216.937 70.4267 217.097 70.72 217.417 70.96L218.057 71.48C218.271 71.64 218.444 71.7467 218.577 71.8C218.711 71.8267 218.911 71.84 219.177 71.84H220.097C220.337 71.84 220.457 71.96 220.457 72.2V73.64C220.457 73.88 220.337 74 220.097 74H210.297C210.057 74 209.937 73.88 209.937 73.64V72.2C209.937 71.96 210.057 71.84 210.297 71.84H210.977C211.404 71.84 211.777 71.7067 212.097 71.44L212.737 70.92C213.031 70.68 213.177 70.4 213.177 70.08V60.32C213.177 59.2267 212.884 58.4 212.297 57.84C211.737 57.2533 211.004 56.96 210.097 56.96C209.351 56.96 208.684 57.12 208.097 57.44C207.511 57.76 206.844 58.2667 206.097 58.96L205.457 59.56ZM248.681 67.12C249.001 67.12 249.107 67.2933 249.001 67.64L248.641 68.72C248.027 70.56 247.014 71.9733 245.601 72.96C244.214 73.92 242.667 74.4 240.961 74.4C239.201 74.4 237.654 73.96 236.321 73.08C235.014 72.2 233.987 71 233.241 69.48C232.494 67.9333 232.121 66.1733 232.121 64.2C232.121 62.92 232.307 61.6533 232.681 60.4C233.054 59.12 233.627 57.9733 234.401 56.96C235.174 55.9467 236.134 55.1333 237.281 54.52C238.454 53.9067 239.841 53.6 241.441 53.6C242.774 53.6 243.907 53.84 244.841 54.32C245.801 54.8 246.574 55.4267 247.161 56.2C247.774 56.9733 248.227 57.8267 248.521 58.76C248.814 59.6933 248.961 60.6 248.961 61.48C248.961 61.8533 248.881 62.1733 248.721 62.44C248.587 62.68 248.294 62.8 247.841 62.8H236.081C235.867 62.8 235.761 62.8933 235.761 63.08C235.761 64.3067 235.974 65.4933 236.401 66.64C236.854 67.76 237.521 68.68 238.401 69.4C239.281 70.12 240.374 70.48 241.681 70.48C243.787 70.48 245.281 69.5733 246.161 67.76L246.281 67.52C246.414 67.2533 246.587 67.12 246.801 67.12H248.681ZM236.081 60.16C236.027 60.4 236.134 60.52 236.401 60.52H244.481C244.694 60.52 244.801 60.4267 244.801 60.24C244.801 59.0133 244.481 57.9867 243.841 57.16C243.201 56.3333 242.227 55.92 240.921 55.92C239.694 55.92 238.641 56.3067 237.761 57.08C236.881 57.8533 236.321 58.88 236.081 60.16ZM260.658 71.84C260.898 71.84 261.018 71.96 261.018 72.2V73.64C261.018 73.88 260.898 74 260.658 74H250.778C250.538 74 250.418 73.88 250.418 73.64V72.2C250.418 71.96 250.538 71.84 250.778 71.84H251.778C252.071 71.84 252.271 71.8267 252.378 71.8C252.511 71.7467 252.658 71.6533 252.818 71.52L253.458 70.96C253.591 70.8267 253.711 70.6933 253.818 70.56C253.924 70.4267 253.978 70.2533 253.978 70.04V49.24C253.978 49.0267 253.938 48.8533 253.858 48.72C253.778 48.5867 253.644 48.44 253.458 48.28L252.898 47.8C252.711 47.64 252.538 47.5333 252.378 47.48C252.244 47.4267 251.978 47.4 251.578 47.4H250.778C250.538 47.4 250.418 47.28 250.418 47.04V46.12C250.418 45.8267 250.591 45.6267 250.938 45.52L255.658 43.88C256.111 43.72 256.511 43.64 256.858 43.64H257.378C257.618 43.64 257.738 43.76 257.738 44V70.04C257.738 70.2533 257.778 70.4267 257.858 70.56C257.964 70.6933 258.098 70.8267 258.258 70.96L258.858 71.44C259.204 71.7067 259.564 71.84 259.938 71.84H260.658ZM276.178 58.6C276.178 58.36 276.058 58.24 275.818 58.24H273.378C273.138 58.24 273.018 58.12 273.018 57.88V56.56C273.018 56.2933 273.111 56.12 273.298 56.04L275.458 55C275.885 54.7867 276.111 54.52 276.138 54.2L276.298 52.08C276.431 50.32 276.858 48.8133 277.578 47.56C278.298 46.3067 279.231 45.3467 280.378 44.68C281.551 43.9867 282.845 43.64 284.258 43.64C285.645 43.64 286.805 43.8933 287.738 44.4C288.698 44.9067 289.431 45.5467 289.938 46.32C290.445 47.0933 290.698 47.8667 290.698 48.64C290.698 49.36 290.485 49.9867 290.058 50.52C289.631 51.0533 288.991 51.32 288.138 51.32C287.311 51.32 286.685 51.0533 286.258 50.52C285.831 49.9867 285.645 49.36 285.698 48.64L285.738 48.2C285.791 47.64 285.658 47.12 285.338 46.64C285.018 46.16 284.378 45.92 283.418 45.92C282.218 45.92 281.258 46.4267 280.538 47.44C279.818 48.4533 279.525 49.9333 279.658 51.88L279.898 55C279.898 55.24 280.018 55.36 280.258 55.36H285.138C285.378 55.36 285.498 55.48 285.498 55.72V57.88C285.498 58.12 285.378 58.24 285.138 58.24H280.298C280.058 58.24 279.938 58.36 279.938 58.6V70.08C279.938 70.2933 279.991 70.4667 280.098 70.6C280.205 70.7333 280.338 70.8667 280.498 71L281.058 71.44C281.405 71.7067 281.778 71.84 282.178 71.84H284.338C284.578 71.84 284.698 71.96 284.698 72.2V73.64C284.698 73.88 284.578 74 284.338 74H272.978C272.738 74 272.618 73.88 272.618 73.64V72.2C272.618 71.96 272.738 71.84 272.978 71.84H274.018C274.445 71.84 274.778 71.7333 275.018 71.52L275.658 70.96C275.818 70.8267 275.938 70.6933 276.018 70.56C276.125 70.4267 276.178 70.2533 276.178 70.04V58.6ZM306.555 68.8C306.555 69.04 306.581 69.2133 306.635 69.32C306.715 69.4267 306.848 69.56 307.035 69.72L307.635 70.24C307.848 70.4267 308.021 70.5467 308.155 70.6C308.288 70.6267 308.528 70.64 308.875 70.64H309.755C309.995 70.64 310.115 70.76 310.115 71V71.96C310.115 72.2267 309.941 72.4133 309.595 72.52L304.955 74.12C304.715 74.2 304.488 74.2667 304.275 74.32C304.088 74.3733 303.888 74.4 303.675 74.4H303.155C302.915 74.4 302.795 74.28 302.795 74.04V71C302.795 70.8667 302.741 70.8 302.635 70.8C302.555 70.7733 302.475 70.8267 302.395 70.96L302.075 71.4C301.381 72.36 300.568 73.1067 299.635 73.64C298.701 74.1467 297.661 74.4 296.515 74.4C295.101 74.4 293.875 73.8933 292.835 72.88C291.795 71.84 291.275 70.4133 291.275 68.6V57.92C291.275 57.5733 291.115 57.28 290.795 57.04L290.155 56.52C289.968 56.36 289.795 56.2667 289.635 56.24C289.501 56.1867 289.288 56.16 288.995 56.16H288.115C287.875 56.16 287.755 56.04 287.755 55.8V54.36C287.755 54.12 287.875 54 288.115 54H294.715C294.928 54 295.035 54.12 295.035 54.36V67.72C295.035 68.7867 295.288 69.6133 295.795 70.2C296.328 70.76 297.008 71.04 297.835 71.04C298.528 71.04 299.168 70.88 299.755 70.56C300.341 70.24 301.008 69.7333 301.755 69.04L302.395 68.44C302.581 68.2533 302.688 68.1067 302.715 68C302.768 67.8667 302.795 67.6667 302.795 67.4V58C302.795 57.8133 302.768 57.6533 302.715 57.52C302.688 57.3867 302.595 57.2667 302.435 57.16L301.635 56.52C301.315 56.28 300.955 56.16 300.555 56.16H299.595C299.355 56.16 299.235 56.04 299.235 55.8V54.36C299.235 54.12 299.355 54 299.595 54H306.235C306.448 54 306.555 54.12 306.555 54.36V68.8ZM312.433 54.92C312.619 54.84 312.753 54.7467 312.833 54.64C312.913 54.5067 312.979 54.3467 313.033 54.16L314.113 50.64C314.193 50.4 314.339 50.28 314.553 50.28H316.313C316.553 50.28 316.673 50.4 316.673 50.64L316.793 55C316.793 55.24 316.913 55.36 317.153 55.36H321.953C322.193 55.36 322.313 55.48 322.313 55.72V57.88C322.313 58.12 322.193 58.24 321.953 58.24H317.113C316.873 58.24 316.753 58.36 316.753 58.6L316.873 69.44C316.873 70.5333 317.299 71.08 318.153 71.08C318.819 71.08 319.326 70.68 319.673 69.88L319.993 69.12C320.099 68.9067 320.246 68.8 320.433 68.8H322.193C322.513 68.8 322.606 68.96 322.473 69.28L321.713 71.28C321.313 72.32 320.753 73.1067 320.033 73.64C319.313 74.1467 318.379 74.4 317.233 74.4C315.899 74.4 314.819 73.9467 313.993 73.04C313.166 72.1333 312.766 70.88 312.793 69.28L312.993 58.6C312.993 58.36 312.873 58.24 312.633 58.24H310.193C309.953 58.24 309.833 58.12 309.833 57.88V56.6C309.833 56.3067 309.926 56.12 310.113 56.04L312.433 54.92ZM342.609 68.8C342.609 69.04 342.636 69.2133 342.689 69.32C342.769 69.4267 342.903 69.56 343.089 69.72L343.689 70.24C343.903 70.4267 344.076 70.5467 344.209 70.6C344.343 70.6267 344.583 70.64 344.929 70.64H345.809C346.049 70.64 346.169 70.76 346.169 71V71.96C346.169 72.2267 345.996 72.4133 345.649 72.52L341.009 74.12C340.769 74.2 340.543 74.2667 340.329 74.32C340.143 74.3733 339.943 74.4 339.729 74.4H339.209C338.969 74.4 338.849 74.28 338.849 74.04V71C338.849 70.8667 338.796 70.8 338.689 70.8C338.609 70.7733 338.529 70.8267 338.449 70.96L338.129 71.4C337.436 72.36 336.623 73.1067 335.689 73.64C334.756 74.1467 333.716 74.4 332.569 74.4C331.156 74.4 329.929 73.8933 328.889 72.88C327.849 71.84 327.329 70.4133 327.329 68.6V57.92C327.329 57.5733 327.169 57.28 326.849 57.04L326.209 56.52C326.023 56.36 325.849 56.2667 325.689 56.24C325.556 56.1867 325.343 56.16 325.049 56.16H324.169C323.929 56.16 323.809 56.04 323.809 55.8V54.36C323.809 54.12 323.929 54 324.169 54H330.769C330.983 54 331.089 54.12 331.089 54.36V67.72C331.089 68.7867 331.343 69.6133 331.849 70.2C332.383 70.76 333.063 71.04 333.889 71.04C334.583 71.04 335.223 70.88 335.809 70.56C336.396 70.24 337.063 69.7333 337.809 69.04L338.449 68.44C338.636 68.2533 338.743 68.1067 338.769 68C338.823 67.8667 338.849 67.6667 338.849 67.4V58C338.849 57.8133 338.823 57.6533 338.769 57.52C338.743 57.3867 338.649 57.2667 338.489 57.16L337.689 56.52C337.369 56.28 337.009 56.16 336.609 56.16H335.649C335.409 56.16 335.289 56.04 335.289 55.8V54.36C335.289 54.12 335.409 54 335.649 54H342.289C342.503 54 342.609 54.12 342.609 54.36V68.8ZM360.661 53.6C361.594 53.6 362.354 53.8933 362.941 54.48C363.528 55.04 363.821 55.72 363.821 56.52C363.821 57.2667 363.581 57.92 363.101 58.48C362.621 59.0133 361.981 59.28 361.181 59.28C360.754 59.28 360.408 59.1867 360.141 59C359.901 58.8133 359.701 58.5867 359.541 58.32L359.421 58.12C359.208 57.72 358.861 57.52 358.381 57.52C357.821 57.52 357.354 57.8667 356.981 58.56L355.261 61.6C355.101 61.8933 354.994 62.1467 354.941 62.36C354.914 62.5467 354.901 62.8133 354.901 63.16V70.08C354.901 70.2933 354.954 70.4667 355.061 70.6C355.168 70.7333 355.301 70.8667 355.461 71L356.021 71.44C356.368 71.7067 356.741 71.84 357.141 71.84H359.301C359.541 71.84 359.661 71.96 359.661 72.2V73.64C359.661 73.88 359.541 74 359.301 74H347.941C347.701 74 347.581 73.88 347.581 73.64V72.2C347.581 71.96 347.701 71.84 347.941 71.84H348.981C349.408 71.84 349.741 71.7333 349.981 71.52L350.621 70.96C350.781 70.8267 350.901 70.6933 350.981 70.56C351.088 70.4267 351.141 70.2533 351.141 70.04V59.2C351.141 58.9867 351.101 58.8267 351.021 58.72C350.968 58.5867 350.848 58.44 350.661 58.28L350.021 57.72C349.834 57.56 349.674 57.4667 349.541 57.44C349.408 57.3867 349.168 57.36 348.821 57.36H347.941C347.701 57.36 347.581 57.24 347.581 57V56.08C347.581 55.8133 347.714 55.6267 347.981 55.52L352.781 53.84C353.234 53.68 353.634 53.6 353.981 53.6H354.541C354.781 53.6 354.901 53.72 354.901 53.96V58.56C354.901 58.64 354.941 58.6933 355.021 58.72C355.101 58.72 355.154 58.68 355.181 58.6L356.181 56.6C356.608 55.7733 357.168 55.0667 357.861 54.48C358.581 53.8933 359.514 53.6 360.661 53.6ZM374.452 74.4C372.506 74.4 370.799 73.9333 369.332 73C367.892 72.0667 366.772 70.8267 365.972 69.28C365.199 67.7333 364.812 66.0267 364.812 64.16C364.812 62.6933 365.079 61.3333 365.612 60.08C366.146 58.8 366.879 57.68 367.812 56.72C368.746 55.7333 369.826 54.9733 371.052 54.44C372.279 53.88 373.586 53.6 374.972 53.6C376.946 53.6 378.652 54.0667 380.092 55C381.532 55.9333 382.639 57.1867 383.412 58.76C384.212 60.3067 384.612 62.0133 384.612 63.88C384.612 65.8267 384.146 67.6 383.212 69.2C382.306 70.7733 381.079 72.04 379.532 73C378.012 73.9333 376.319 74.4 374.452 74.4ZM369.052 63.8C369.052 65.32 369.266 66.68 369.692 67.88C370.146 69.08 370.799 70.0267 371.652 70.72C372.506 71.4133 373.546 71.76 374.772 71.76C376.319 71.76 377.639 71.1333 378.732 69.88C379.826 68.6 380.372 66.72 380.372 64.24C380.372 62.72 380.146 61.36 379.692 60.16C379.266 58.96 378.626 58.0133 377.772 57.32C376.946 56.6267 375.919 56.28 374.692 56.28C373.146 56.28 371.812 56.9067 370.692 58.16C369.599 59.4133 369.052 61.2933 369.052 63.8ZM389.605 74.4C388.778 74.4 388.058 74.1067 387.445 73.52C386.831 72.9067 386.525 72.1733 386.525 71.32C386.525 70.4667 386.831 69.7467 387.445 69.16C388.058 68.5467 388.778 68.24 389.605 68.24C390.458 68.24 391.178 68.5467 391.765 69.16C392.378 69.7467 392.685 70.4667 392.685 71.32C392.685 72.1733 392.378 72.9067 391.765 73.52C391.178 74.1067 390.458 74.4 389.605 74.4Z" fill="white"/>
</svg>
