<svg width="16" height="18" viewBox="0 0 16 18" fill="none" xmlns="http://www.w3.org/2000/svg">
<path fill-rule="evenodd" clip-rule="evenodd" d="M5.25 1.83342C5.25 1.82249 5.25339 1.80638 5.27355 1.78718C5.29434 1.76737 5.32859 1.75 5.375 1.75H10.625C10.6714 1.75 10.7057 1.76737 10.7264 1.78718C10.7466 1.80638 10.75 1.82249 10.75 1.83342V2.22925V3.50025C10.75 3.51117 10.7466 3.52729 10.7264 3.54649C10.7057 3.56629 10.6714 3.58367 10.625 3.58367H5.375C5.32859 3.58367 5.29434 3.56629 5.27355 3.54649C5.25339 3.52729 5.25 3.51117 5.25 3.50025V2.22925V1.83342ZM3.79007 1.47925H2.75C2.10194 1.47925 1.4715 1.72023 0.999513 2.16288C0.525893 2.60705 0.25 3.22015 0.25 3.87044V15.3588C0.25 16.0091 0.525893 16.6222 0.999513 17.0663C1.4715 17.509 2.10194 17.75 2.75 17.75H13.25C13.8981 17.75 14.5285 17.509 15.0005 17.0663C15.4741 16.6222 15.75 16.0091 15.75 15.3588V3.87044C15.75 3.22015 15.4741 2.60705 15.0005 2.16288C14.5285 1.72023 13.8981 1.47925 13.25 1.47925H12.2099C12.0423 0.754957 11.3711 0.25 10.625 0.25H5.375C4.62885 0.25 3.95772 0.754957 3.79007 1.47925ZM12.25 2.97925V3.50025C12.25 4.40874 11.4876 5.08367 10.625 5.08367H5.375C4.51237 5.08367 3.75 4.40874 3.75 3.50025V2.97925H2.75C2.4698 2.97925 2.21 3.08408 2.02561 3.25701C1.84286 3.4284 1.75 3.65018 1.75 3.87044V15.3588C1.75 15.579 1.84286 15.8008 2.02561 15.9722C2.21 16.1451 2.4698 16.25 2.75 16.25H13.25C13.5302 16.25 13.79 16.1451 13.9744 15.9722C14.1571 15.8008 14.25 15.579 14.25 15.3588V3.87044C14.25 3.65018 14.1571 3.4284 13.9744 3.25701C13.79 3.08408 13.5302 2.97925 13.25 2.97925H12.25ZM3.25 9C3.25 8.58579 3.58579 8.25 4 8.25L12 8.25C12.4142 8.25 12.75 8.58579 12.75 9C12.75 9.41421 12.4142 9.75 12 9.75H4C3.58579 9.75 3.25 9.41421 3.25 9ZM4 12.25C3.58579 12.25 3.25 12.5858 3.25 13C3.25 13.4142 3.58579 13.75 4 13.75H12C12.4142 13.75 12.75 13.4142 12.75 13C12.75 12.5858 12.4142 12.25 12 12.25H4Z" fill="#2E2473"/>
</svg>
