<svg width="24" height="25" viewBox="0 0 24 25" fill="none" xmlns="http://www.w3.org/2000/svg">
<g clip-path="url(#clip0_394_19)">
<path d="M12 24.4997C18.6274 24.4997 24 19.1271 24 12.4997C24 5.87231 18.6274 0.499725 12 0.499725C5.37258 0.499725 0 5.87231 0 12.4997C0 19.1271 5.37258 24.4997 12 24.4997Z" fill="#007AB9"/>
<path d="M19.1698 13.4654V18.4127H16.3014V13.7969C16.3014 12.638 15.8873 11.8465 14.8488 11.8465C14.0562 11.8465 13.5854 12.3794 13.3775 12.8953C13.302 13.0797 13.2825 13.3358 13.2825 13.5944V18.4125H10.4139C10.4139 18.4125 10.4525 10.5949 10.4139 9.78568H13.2827V11.0082C13.2769 11.0178 13.2688 11.0272 13.2637 11.0364H13.2827V11.0082C13.6639 10.4216 14.3437 9.58311 15.8678 9.58311C17.755 9.58311 19.1698 10.8161 19.1698 13.4654ZM7.4132 5.62724C6.43199 5.62724 5.79004 6.27133 5.79004 7.11756C5.79004 7.94583 6.41338 8.60853 7.37555 8.60853H7.39416C8.39462 8.60853 9.01668 7.94583 9.01668 7.11756C8.99764 6.27133 8.39462 5.62724 7.4132 5.62724ZM5.96053 18.4127H8.82801V9.78568H5.96053V18.4127Z" fill="#F1F2F2"/>
</g>
<defs>
<clipPath id="clip0_394_19">
<rect width="24" height="24" fill="white" transform="translate(0 0.5)"/>
</clipPath>
</defs>
</svg>
