<svg width="17" height="14" viewBox="0 0 17 14" fill="none" xmlns="http://www.w3.org/2000/svg">
<path d="M15.0413 1.48311C14.1931 0.644273 13.0686 0.132293 11.8712 0.0396547C10.6737 -0.0529831 9.48209 0.279829 8.51163 0.977975C7.4935 0.23103 6.22624 -0.107671 4.96507 0.0300787C3.70389 0.167829 2.54247 0.771797 1.71468 1.72036C0.886899 2.66892 0.454242 3.89162 0.503837 5.14223C0.553433 6.39284 1.0816 7.57846 1.98197 8.46035L6.95124 13.3697C7.36736 13.7736 7.92779 14 8.51163 14C9.09547 14 9.65591 13.7736 10.072 13.3697L15.0413 8.46035C15.9756 7.53316 16.5 6.279 16.5 4.97173C16.5 3.66447 15.9756 2.41031 15.0413 1.48311ZM13.913 7.37114L8.94374 12.2726C8.88719 12.3289 8.81989 12.3736 8.74572 12.4041C8.67156 12.4346 8.59199 12.4503 8.51163 12.4503C8.43127 12.4503 8.35171 12.4346 8.27754 12.4041C8.20337 12.3736 8.13607 12.3289 8.07952 12.2726L3.11026 7.34746C2.48271 6.71473 2.1313 5.86478 2.1313 4.97962C2.1313 4.09447 2.48271 3.24451 3.11026 2.61178C3.74975 1.98903 4.61222 1.63984 5.51087 1.63984C6.40952 1.63984 7.27199 1.98903 7.91148 2.61178C7.98587 2.68576 8.07437 2.74448 8.17188 2.78455C8.2694 2.82462 8.37399 2.84525 8.47962 2.84525C8.58526 2.84525 8.68985 2.82462 8.78736 2.78455C8.88488 2.74448 8.97338 2.68576 9.04777 2.61178C9.68726 1.98903 10.5497 1.63984 11.4484 1.63984C12.347 1.63984 13.2095 1.98903 13.849 2.61178C14.4852 3.23622 14.8481 4.08157 14.8601 4.96675C14.872 5.85192 14.5321 6.70652 13.913 7.34746V7.37114Z" fill="#2E2473"/>
</svg>
