<svg width="14" height="15" viewBox="0 0 14 15" fill="none" xmlns="http://www.w3.org/2000/svg">
<path d="M7 0.75C7.38814 0.750025 7.70747 1.0449 7.74609 1.42285L7.75 1.5V6.75H13L13.0771 6.75391C13.4551 6.79253 13.75 7.11183 13.75 7.5C13.75 7.88817 13.4551 8.20747 13.0771 8.24609L13 8.25H7.75V13.5C7.74997 13.9142 7.41417 14.25 7 14.25C6.58583 14.25 6.25003 13.9142 6.25 13.5V8.25H1L0.923828 8.24609C0.545604 8.20772 0.25 7.88835 0.25 7.5C0.25 7.11165 0.545604 6.79228 0.923828 6.75391L1 6.75H6.25V1.5L6.25391 1.42285C6.29253 1.0449 6.61186 0.750025 7 0.75Z" fill="#2E2473"/>
</svg>
